<?xml version="1.0" standalone="no"?>
<!DOCTYPE svg PUBLIC "-//W3C//DTD SVG 20010904//EN"
 "http://www.w3.org/TR/2001/REC-SVG-20010904/DTD/svg10.dtd">
<svg version="1.0" xmlns="http://www.w3.org/2000/svg"
 width="512.000000pt" height="512.000000pt" viewBox="0 0 512.000000 512.000000"
 preserveAspectRatio="xMidYMid meet">
<metadata>
Created by potrace 1.16, written by Peter Selinger 2001-2019
</metadata>
<g transform="translate(0.000000,512.000000) scale(0.100000,-0.100000)"
fill="#000000" stroke="none">
<path d="M2911 4580 c-63 -22 -131 -40 -151 -40 -21 0 -69 12 -106 26 -178 67
-380 23 -500 -109 -32 -35 -64 -59 -89 -67 -57 -18 -107 -45 -144 -75 l-31
-27 0 26 c0 33 34 122 57 150 l18 21 -25 -20 c-95 -75 -143 -144 -156 -225 -6
-34 -13 -44 -44 -60 -46 -24 -97 -66 -111 -93 -11 -19 -9 -20 37 -14 35 4 43
2 30 -5 -10 -6 -48 -8 -83 -6 -59 4 -69 8 -94 36 -16 18 -29 27 -29 20 0 -16
35 -76 61 -104 16 -17 18 -26 10 -45 -6 -13 -22 -63 -37 -111 -32 -106 -50
-128 -107 -128 l-42 -1 23 -19 c13 -11 46 -22 73 -26 48 -6 49 -7 49 -41 0
-71 -39 -125 -106 -148 l-36 -12 32 -12 c18 -6 45 -11 59 -11 25 0 26 -3 28
-62 3 -69 16 -115 80 -271 l44 -108 -30 -34 c-38 -44 -45 -81 -38 -213 5 -113
10 -132 87 -317 51 -123 66 -140 125 -139 44 1 45 0 51 -35 18 -107 55 -254
73 -288 11 -22 32 -54 46 -71 23 -27 25 -38 25 -124 l0 -94 -48 -36 c-42 -31
-61 -58 -131 -190 l-83 -154 -411 -211 c-227 -116 -498 -254 -602 -307 -340
-171 -462 -302 -593 -634 -64 -164 -67 -172 -50 -172 7 0 26 35 42 78 40 108
106 261 129 300 l20 34 79 -79 c94 -92 149 -161 208 -261 38 -63 47 -72 72
-72 23 0 28 4 24 18 -11 36 -26 201 -26 297 -1 89 -2 98 -15 81 -8 -10 -17
-37 -20 -60 -6 -40 10 -262 22 -301 3 -11 -23 22 -58 74 -35 52 -112 145 -171
207 l-108 111 22 29 c49 66 147 159 213 203 39 25 167 91 285 146 220 102 673
328 820 409 91 50 99 54 79 30 -7 -9 -13 -23 -14 -32 -3 -41 -29 -128 -42
-140 -7 -7 -13 -20 -13 -28 0 -8 -5 -14 -11 -14 -5 0 -8 -4 -5 -9 3 -4 2 -22
-3 -38 -7 -25 -4 -36 17 -62 19 -25 27 -29 33 -19 7 10 9 9 9 -4 0 -10 5 -18
11 -18 5 0 8 -4 5 -9 -10 -16 -27 -414 -19 -422 5 -5 81 29 168 76 88 47 163
85 166 85 9 0 32 -57 85 -213 25 -71 53 -146 64 -168 11 -21 34 -78 52 -126
35 -101 56 -134 32 -53 -61 208 -115 360 -126 360 -4 0 -8 7 -8 16 0 8 41 -36
91 -98 50 -62 94 -112 98 -111 4 1 57 -47 117 -108 105 -106 110 -109 153
-109 l44 0 -39 43 c-88 98 -185 230 -179 245 3 8 0 41 -6 72 -13 65 -36 85
-76 67 -43 -19 -20 -105 39 -151 48 -36 154 -184 141 -197 -21 -21 -242 248
-303 369 -10 21 -20 56 -23 80 -5 38 -3 41 10 30 10 -8 6 7 -11 39 -14 29 -26
64 -26 78 0 25 0 25 30 10 72 -37 121 55 61 116 -17 16 -24 29 -16 29 7 0 27
-14 44 -31 37 -37 39 -68 10 -135 l-20 -48 22 19 c27 26 49 68 49 97 0 13 -9
41 -21 62 -11 21 -18 40 -16 43 3 2 14 -16 26 -40 27 -55 27 -125 1 -177 -11
-22 -20 -44 -20 -49 0 -6 30 -39 66 -73 77 -73 92 -100 111 -188 8 -35 24 -88
38 -117 32 -71 112 -193 126 -193 19 0 1 49 -54 145 -49 87 -51 93 -57 185 -7
118 -27 156 -108 203 -63 37 -83 73 -62 112 27 50 -32 194 -205 505 -101 181
-118 218 -109 239 4 9 10 114 13 234 l6 218 55 -57 c30 -31 49 -54 43 -50 -8
4 -13 1 -13 -8 0 -8 -5 -16 -10 -18 -6 -2 12 -41 41 -88 87 -143 108 -182 130
-250 12 -36 24 -69 28 -75 3 -5 6 -12 6 -15 0 -3 5 -13 11 -23 8 -14 18 -17
52 -11 43 7 60 27 41 51 -7 7 -9 16 -7 19 5 4 74 -69 148 -156 16 -19 13 -9
-10 39 -35 70 -51 149 -40 190 5 21 8 14 13 -32 3 -32 14 -76 25 -98 11 -21
14 -35 8 -32 -6 4 4 -8 22 -26 18 -18 41 -50 52 -70 10 -20 19 -30 20 -23 0
16 -24 63 -66 127 -44 67 -51 110 -24 153 25 41 99 88 168 108 29 9 92 31 140
50 48 19 87 34 87 34 2 0 -15 -189 -19 -214 -5 -30 5 0 45 137 15 52 34 86 85
150 84 104 188 205 180 172 -11 -45 -46 -417 -46 -494 0 -66 -6 -96 -36 -180
-20 -56 -40 -101 -45 -101 -5 0 -5 -7 -2 -17 4 -11 3 -14 -5 -9 -8 4 -10 2 -6
-7 7 -20 -49 -141 -80 -172 -14 -14 -26 -29 -26 -33 0 -4 -37 -45 -82 -92 -46
-46 -70 -73 -55 -60 l28 25 19 -25 c15 -19 18 -34 13 -63 -5 -33 -3 -39 16
-44 11 -3 21 -7 21 -10 0 -2 -22 -41 -49 -86 -50 -83 -176 -337 -205 -414 -12
-33 -13 -43 -3 -43 7 0 28 35 46 78 43 101 163 323 208 385 25 34 39 45 46 38
8 -8 5 -16 -9 -27 -19 -15 -19 -15 1 -6 25 12 69 -3 59 -19 -4 -7 -3 -9 4 -5
5 3 33 -20 61 -51 61 -68 66 -53 11 32 -27 42 -45 85 -55 131 -17 81 -18 94
-5 74 7 -11 10 -5 10 23 0 53 49 145 71 132 4 -3 17 8 28 23 34 48 111 201
111 220 -1 9 -9 -4 -19 -30 -21 -53 -112 -210 -118 -204 -2 2 9 26 26 53 54
88 92 181 120 295 18 71 30 106 34 93 3 -11 3 3 1 30 -3 30 -2 45 3 37 14 -19
15 165 2 191 -7 12 -30 41 -51 65 -22 24 -37 46 -34 50 13 13 105 -93 136
-157 43 -86 238 -555 321 -770 8 -20 3 -18 -33 15 -100 92 -267 194 -318 194
-16 0 -48 -15 -76 -35 -27 -20 -69 -49 -94 -65 -83 -54 -118 -111 -90 -145 11
-13 15 -11 31 9 19 25 106 86 121 86 15 0 8 -35 -33 -160 -36 -110 -40 -133
-35 -187 l5 -63 -92 -79 c-88 -75 -153 -147 -198 -219 l-21 -32 35 0 c26 0 39
6 51 26 10 14 64 73 120 132 111 115 120 128 130 184 4 21 24 79 45 130 21 51
44 111 51 133 18 56 20 59 36 38 31 -41 3 -345 -51 -552 -25 -99 -16 -82 31
54 64 187 93 307 100 415 9 151 16 165 50 97 l16 -32 -26 30 c-14 17 -25 26
-26 20 0 -5 18 -30 41 -55 43 -48 45 -42 12 45 -12 31 -17 62 -14 82 l6 32 42
-27 c27 -17 48 -40 58 -64 11 -29 27 -44 66 -63 59 -30 93 -30 97 2 3 20 -101
292 -169 443 -17 35 -31 72 -32 81 -2 10 -9 24 -16 33 -8 9 -12 18 -9 21 4 5
213 -110 563 -311 116 -67 280 -160 365 -209 181 -103 335 -202 369 -239 24
-25 24 -26 6 -46 -10 -11 -24 -19 -31 -16 -8 3 -11 -1 -8 -9 3 -8 -12 -35 -35
-62 -48 -56 -221 -294 -221 -305 0 -5 6 -8 13 -8 6 0 28 26 47 58 34 57 183
257 240 322 l30 34 18 -24 c48 -67 106 -176 148 -277 29 -69 52 -113 61 -113
18 0 13 16 -47 152 -101 227 -193 339 -383 462 -169 110 -742 431 -1013 568
l-141 72 -59 130 c-50 113 -67 140 -121 196 l-64 65 11 115 c11 112 12 116 45
145 67 60 107 153 135 312 l13 73 43 0 c35 0 47 5 68 31 14 17 26 38 26 47 0
9 25 65 54 124 63 125 81 204 74 330 -5 92 -26 145 -66 163 -27 12 -26 15 45
170 82 178 95 226 90 315 -3 41 -8 86 -12 99 -8 23 -7 23 49 20 39 -3 52 -1
43 6 -19 13 -50 77 -72 145 -10 30 -26 71 -35 90 l-18 36 28 16 c16 9 38 35
50 57 19 39 19 41 2 30 -39 -24 -87 -3 -150 68 -33 36 -65 75 -70 87 -6 11
-25 51 -42 88 -34 74 -100 148 -161 179 -22 10 -39 23 -39 28 0 23 -60 76
-115 102 -44 22 -75 29 -117 29 -64 0 -70 8 -33 45 l24 25 -37 0 c-20 -1 -88
-19 -151 -40z m90 -8 c-16 -30 -146 -148 -193 -175 -24 -14 -77 -35 -118 -48
-92 -27 -123 -42 -175 -84 -46 -37 -83 -105 -95 -173 -7 -45 -8 -46 -10 -12
-5 62 1 94 26 147 37 78 127 140 258 177 32 10 56 19 54 21 -8 8 -164 -28
-200 -46 -21 -11 -54 -34 -75 -52 l-37 -32 23 33 c33 47 113 88 218 113 55 12
123 36 166 59 41 22 77 37 81 35 3 -3 4 -2 1 2 -5 6 62 52 78 53 4 0 3 -8 -2
-18z m-413 -10 c13 -4 -23 -7 -80 -7 -122 -1 -182 -20 -280 -92 -35 -25 -54
-36 -43 -23 31 36 124 92 185 111 55 18 172 23 218 11z m-154 -73 c-27 -17
-64 -45 -81 -62 -47 -44 -41 -25 10 30 37 40 39 45 17 38 -49 -15 -103 -47
-148 -88 -42 -39 -44 -40 -24 -10 48 68 150 117 251 122 20 1 16 -5 -25 -30z
m760 15 c26 -9 61 -31 79 -49 50 -52 61 -63 129 -129 41 -39 77 -86 101 -132
20 -39 61 -99 92 -133 30 -34 55 -64 55 -67 0 -3 -17 4 -37 16 l-38 22 44 -41
c24 -23 52 -41 62 -41 11 0 19 -4 19 -10 0 -13 -54 -2 -108 21 -23 10 -46 19
-50 19 -4 1 -13 6 -19 12 -21 17 -15 -6 15 -53 27 -42 69 -84 122 -122 24 -17
24 -17 -13 -2 -65 25 -100 60 -172 169 -45 68 -131 139 -194 161 -25 8 -74 15
-110 15 -81 0 -137 -24 -236 -102 -72 -57 -133 -93 -142 -85 -2 3 5 8 17 12
12 4 57 36 101 71 43 35 99 75 124 88 134 72 273 50 379 -58 l48 -50 -22 44
c-32 63 -120 147 -186 177 -47 21 -66 25 -127 21 -102 -5 -152 -33 -277 -153
-106 -102 -146 -135 -165 -135 -5 0 4 9 22 19 17 11 55 46 85 78 84 91 124
129 170 161 46 32 131 61 182 63 l31 2 -35 6 c-46 9 -114 -4 -165 -30 -42 -22
-40 -17 9 19 34 26 27 28 -14 7 -51 -26 -33 -7 23 25 104 60 229 28 336 -85
49 -51 63 -57 41 -14 -17 32 1 22 54 -28 l49 -48 -47 63 c-26 34 -45 66 -42
71 3 5 -2 15 -12 22 -16 13 -16 12 -2 -6 8 -11 -1 -5 -19 12 -44 43 -143 91
-209 102 -58 9 -79 20 -41 22 l24 1 -25 9 c-16 5 -4 6 35 3 33 -3 85 -17 115
-30 l54 -25 -24 25 c-31 34 -119 66 -186 69 -30 1 -54 5 -54 10 0 13 106 7
154 -9z m-690 -68 c-66 -45 -151 -138 -159 -176 -4 -17 -11 -28 -16 -25 -9 6
24 79 40 90 6 3 20 19 32 36 l22 31 -49 -35 c-27 -19 -68 -44 -90 -55 -97 -49
-147 -120 -148 -207 0 -58 28 -113 69 -135 14 -7 23 -15 21 -18 -11 -11 -66
42 -85 81 -23 48 -26 84 -10 141 12 43 78 120 123 143 17 8 75 44 128 80 54
35 108 68 120 73 49 19 50 8 2 -24z m544 14 c-14 -4 -32 -11 -40 -15 -7 -3 -4
1 6 9 11 9 29 16 40 15 17 -1 16 -2 -6 -9z m-1193 -140 c-19 -54 -34 -80 -34
-60 -1 17 35 100 43 100 3 0 -1 -18 -9 -40z m860 -8 c-6 -4 -26 -20 -45 -34
-60 -44 -93 -117 -101 -228 l-7 -95 2 105 c1 95 4 110 29 152 25 42 97 106
122 108 5 0 5 -3 0 -8z m-616 -16 c-2 -2 -42 -6 -89 -9 -48 -3 -76 -1 -65 3
19 8 163 14 154 6z m266 -248 c16 -23 21 -37 12 -30 -33 27 -57 96 -56 158 l2
59 7 -72 c5 -54 13 -81 35 -115z m912 67 c64 -19 121 -73 157 -148 30 -63 34
-83 9 -47 -78 118 -209 173 -325 137 -27 -8 -46 -12 -43 -7 7 11 88 30 129 30
19 0 56 -7 82 -16 62 -21 66 -12 7 17 -61 30 -144 31 -202 2 -22 -11 -38 -16
-35 -11 11 18 108 58 140 58 17 0 53 -7 81 -15z m-1335 -59 c19 -9 50 -30 69
-46 l34 -29 -70 35 c-38 19 -92 37 -120 40 -73 9 -156 -23 -219 -84 -35 -34
-43 -39 -28 -17 59 86 141 128 238 121 33 -2 76 -11 96 -20z m1327 -66 c21
-10 65 -50 97 -87 159 -181 204 -213 316 -221 41 -3 65 -9 61 -15 -10 -16
-125 -1 -173 23 -70 35 -114 74 -174 154 -61 82 -114 132 -160 152 -17 7 -25
13 -18 14 7 0 30 -9 51 -20z m-1271 -11 c18 -6 40 -8 48 -5 8 3 12 2 9 -3 -3
-5 3 -12 12 -14 10 -3 -4 -2 -32 1 -27 3 -81 13 -120 23 l-70 18 60 -5 c33 -3
75 -10 93 -15z m1637 -47 c30 -10 30 -10 4 -11 -16 -1 -40 12 -65 35 -38 35
-38 35 -4 11 19 -13 49 -29 65 -35z m-1780 8 c-114 -7 -138 -17 -235 -95 -36
-28 -81 -62 -100 -75 l-35 -23 40 42 c47 50 157 126 212 146 23 8 73 13 128
13 l90 -1 -100 -7z m1142 -50 c75 -35 146 -103 179 -173 14 -32 24 -44 24 -31
0 11 -14 48 -31 82 -31 62 -89 122 -144 149 -29 13 -27 14 36 10 118 -8 205
-73 252 -190 18 -44 21 -75 22 -202 l1 -150 43 -87 c31 -62 44 -104 48 -148 5
-54 9 -63 34 -76 25 -12 29 -21 29 -54 0 -39 -1 -40 -26 -34 -30 8 -31 17 1
-161 21 -114 19 -134 -34 -385 -78 -366 -96 -407 -245 -555 -61 -61 -134 -136
-162 -167 -93 -101 -177 -128 -404 -128 -144 0 -235 12 -285 37 -16 9 -62 45
-100 82 -39 36 -111 100 -162 141 -50 41 -95 82 -98 90 -3 8 13 -3 37 -25 l43
-40 -39 42 c-22 23 -43 40 -46 38 -12 -8 -32 23 -24 36 4 7 3 9 -3 6 -24 -15
-68 144 -103 374 -12 74 -25 152 -30 174 -20 91 -22 219 -5 334 25 169 55 179
90 31 35 -144 68 -196 153 -237 49 -23 70 -27 147 -27 110 0 185 21 245 68 38
30 45 32 58 20 13 -13 17 -13 35 3 20 18 20 18 13 -22 -12 -67 -15 -73 -49
-79 -46 -9 -74 -31 -97 -76 -25 -48 -25 -87 -2 -120 19 -28 29 -32 87 -32 22
0 50 -5 63 -12 l22 -12 -31 -29 c-18 -17 -28 -23 -24 -15 7 12 6 13 -7 3 -8
-7 -18 -10 -21 -7 -3 4 -26 -5 -50 -19 -32 -19 -47 -23 -55 -15 -8 8 -16 8
-27 -2 -9 -8 -33 -13 -52 -12 -20 2 -47 -5 -62 -14 l-26 -17 19 21 c28 32 3
27 -32 -6 -54 -50 -52 -113 7 -242 l21 -45 -3 72 c-2 58 0 70 11 61 9 -8 16
-6 27 8 15 21 12 22 85 -34 118 -89 442 -95 575 -11 58 37 53 50 -7 16 -98
-57 -245 -78 -365 -52 l-79 17 1 36 0 36 255 -2 c140 -1 262 -4 270 -7 21 -7
40 -63 34 -100 -5 -29 -5 -29 10 -11 20 24 56 120 56 147 0 32 -27 87 -48 98
-30 16 -35 1 -10 -27 15 -16 6 -12 -25 12 -60 45 -75 46 -46 4 l23 -33 -42 38
c-60 53 -78 49 -33 -8 8 -11 -6 0 -33 25 -33 30 -47 39 -42 25 4 -15 -1 -12
-20 10 -26 29 -26 30 -21 5 6 -23 4 -22 -24 10 -27 32 -30 33 -24 10 7 -24 6
-24 -20 5 -15 17 -23 23 -19 15 7 -12 5 -13 -8 -3 -18 15 -29 7 -21 -15 4 -14
3 -14 -5 -3 -6 8 -22 16 -36 18 -20 3 -29 -3 -41 -26 -8 -17 -14 -36 -13 -43
5 -22 49 -37 80 -26 23 8 27 14 23 36 -5 24 -4 24 4 6 5 -12 21 -24 36 -28 34
-9 217 -86 230 -98 11 -10 -46 8 -153 48 -69 26 -76 26 -128 14 -48 -12 -59
-11 -90 3 -47 23 -63 22 -166 -14 -49 -16 -96 -29 -105 -27 -9 2 38 20 103 41
130 42 149 50 149 63 0 5 6 24 14 42 12 28 18 32 50 32 23 0 51 11 80 30 30
20 56 30 83 30 43 0 48 12 16 34 -37 26 -67 20 -107 -24 -46 -51 -72 -51 -119
-3 -59 59 -141 75 -150 30 -2 -11 7 -18 35 -22 68 -11 84 -26 24 -21 -63 4
-91 28 -91 78 0 63 59 119 109 103 13 -4 23 0 30 12 15 28 32 175 30 250 -2
58 0 68 20 85 32 25 73 23 102 -6 15 -15 37 -65 57 -129 18 -57 39 -113 47
-123 13 -16 13 -13 0 18 -25 63 -17 69 28 22 57 -60 132 -86 247 -87 95 0 149
13 198 50 46 34 67 73 98 173 14 47 30 90 35 96 5 6 6 14 2 17 -3 4 1 7 10 7
17 0 24 22 19 61 -4 24 -11 27 -84 43 -129 28 -241 36 -358 26 -60 -6 -121
-15 -136 -20 -15 -6 -29 -9 -31 -6 -9 9 66 26 177 41 208 27 223 29 217 18 -4
-6 16 -15 46 -22 29 -6 63 -14 76 -18 22 -5 22 -4 11 17 -19 35 -89 108 -126
131 -33 20 -36 20 -82 5 -26 -9 -90 -22 -142 -28 -79 -9 -100 -15 -122 -36
-30 -27 -35 -24 -17 9 9 18 8 19 -8 10 -11 -5 -28 -26 -38 -45 -31 -57 -45
-44 -20 17 4 10 3 17 -4 17 -18 0 -51 -82 -44 -108 3 -14 0 -24 -10 -28 -24
-9 -186 -10 -180 -1 5 8 -16 44 -43 75 -8 9 -24 28 -35 42 -17 21 -20 21 -14
5 6 -18 5 -18 -15 2 -11 13 -31 25 -43 27 -12 3 -86 19 -165 36 -78 17 -151
28 -162 25 -40 -13 -201 -157 -189 -170 3 -2 33 3 69 10 36 8 77 14 92 15 14
0 28 5 30 11 7 22 299 -28 377 -64 51 -24 81 -68 80 -117 -1 -34 -2 -34 -8 7
-4 23 -16 52 -27 64 -46 52 -194 89 -352 89 -112 -1 -304 -31 -310 -50 -11
-32 -18 16 -10 76 6 53 17 83 55 148 l48 81 1 135 c0 148 8 180 65 251 66 83
143 117 321 141 76 10 94 9 155 -7 84 -24 145 -23 293 2 129 23 131 22 217
-17z m-997 25 c0 -22 -219 -96 -279 -94 -17 0 -10 5 24 14 28 8 93 29 145 49
98 36 110 39 110 31z m59 1 c-2 -2 -31 -25 -63 -50 -79 -61 -138 -89 -200 -92
l-51 -3 42 9 c61 13 119 40 196 93 57 39 93 60 76 43z m1654 -95 c27 -46 15
-37 -23 17 -19 26 -25 39 -14 30 10 -9 27 -30 37 -47z m-74 -79 c-9 -4 -66 24
-73 36 -3 5 14 -1 38 -12 23 -12 39 -22 35 -24z m-209 -17 c13 -14 21 -25 18
-25 -2 0 -15 11 -28 25 -13 14 -21 25 -18 25 2 0 15 -11 28 -25z m257 9 c-3
-3 -12 -4 -19 -1 -8 3 -5 6 6 6 11 1 17 -2 13 -5z m-199 -172 c2 9 -2 27 -8
39 -7 12 -8 19 -3 16 30 -18 103 -257 89 -291 -2 -6 -5 0 -6 14 -1 14 -4 19
-7 12 -7 -17 -57 41 -101 116 -44 75 -32 32 28 -98 68 -150 73 -171 61 -260
l-10 -75 5 78 c5 83 -10 162 -27 136 -7 -11 -9 -11 -9 2 0 9 -18 43 -39 76
-73 113 -71 120 7 24 6 -9 -2 14 -19 52 -17 37 -33 86 -36 110 l-4 42 47 -50
c26 -27 55 -63 66 -80 10 -16 18 -25 18 -19 0 7 -16 36 -36 65 -41 61 -64 110
-64 136 1 11 9 2 22 -22 16 -28 23 -35 26 -23z m117 -34 c25 -46 29 -65 31
-143 3 -87 3 -88 -6 -31 -10 63 -20 85 -20 45 -1 -17 -88 196 -90 219 0 2 13
-6 28 -17 15 -11 41 -43 57 -73z m-1750 8 c-14 -36 -26 -76 -26 -89 -1 -18 -2
-19 -6 -3 -5 18 45 171 53 163 2 -2 -7 -34 -21 -71z m1771 57 c30 -30 54 -96
53 -148 l0 -50 -15 54 c-8 31 -32 78 -55 108 -34 46 -37 53 -20 53 11 0 27 -8
37 -17z m85 -28 c14 -32 19 -62 17 -103 l-3 -57 -13 55 c-7 30 -23 73 -36 97
-23 40 -21 49 7 52 4 1 17 -19 28 -44z m-1853 -129 c-38 -50 -52 -54 -17 -4
20 29 38 47 47 48 1 0 -12 -20 -30 -44z m-19 -73 c-13 -16 -39 -45 -58 -65
l-34 -37 5 -88 c3 -48 2 -77 -2 -63 -5 14 -8 53 -9 88 -1 63 -1 64 56 128 31
35 59 64 62 64 2 0 -6 -12 -20 -27z m601 -168 c13 -14 21 -25 18 -25 -2 0 -15
11 -28 25 -13 14 -21 25 -18 25 2 0 15 -11 28 -25z m510 22 c0 -2 -15 -16 -32
-33 l-33 -29 29 33 c28 30 36 37 36 29z m-530 -32 c13 -14 21 -25 18 -25 -2 0
-15 11 -28 25 -13 14 -21 25 -18 25 2 0 15 -11 28 -25z m630 18 c-56 -22 -122
-42 -116 -36 13 13 90 42 111 42 14 -1 16 -2 5 -6z m-655 -40 l30 -13 -40 6
c-22 4 -53 13 -70 20 l-30 13 40 -6 c22 -3 54 -12 70 -20z m-575 -111 c0 -33
-4 -39 -32 -50 -39 -14 -52 -4 -39 30 9 24 46 58 63 58 5 0 8 -17 8 -38z m471
25 c13 -10 2 -12 -58 -9 -79 4 -149 -14 -175 -45 -10 -12 -3 -11 27 5 92 46
199 41 271 -14 25 -20 48 -33 52 -30 3 3 12 0 20 -6 8 -7 26 -12 40 -13 20 0
28 -6 30 -23 5 -31 -53 -127 -109 -183 -40 -41 -42 -46 -19 -38 39 14 106 82
135 137 13 26 24 43 25 39 1 -18 -44 -92 -81 -132 -60 -65 -123 -88 -239 -89
-135 0 -196 30 -243 119 -25 48 -31 204 -9 227 11 11 12 9 7 -7 -5 -15 -4 -17
3 -6 6 8 8 20 5 28 -5 11 2 15 23 12 4 0 10 5 14 12 11 17 71 27 175 28 57 0
96 -4 106 -12z m497 -19 c-18 -18 -34 -33 -36 -32 -9 4 13 32 36 47 38 23 38
21 0 -15z m459 1 c68 -35 88 -67 88 -142 -1 -160 -85 -240 -250 -240 -107 0
-157 16 -211 65 -40 37 -60 69 -32 52 7 -4 8 -3 4 5 -4 6 -12 9 -17 5 -10 -6
-49 71 -48 96 0 8 7 -3 15 -25 24 -66 32 -60 10 8 -14 44 -23 59 -28 48 -5
-12 -7 -11 -7 7 -2 54 50 125 79 107 12 -7 1 -63 -18 -92 -10 -17 -11 -23 -2
-23 7 0 10 -6 7 -14 -4 -10 15 -15 81 -21 142 -14 173 -11 272 20 l95 29 -40
23 c-73 42 -105 53 -164 59 -65 7 -111 -4 -166 -41 -19 -14 -35 -20 -35 -14 0
5 7 12 15 15 8 4 12 11 8 17 -3 5 -1 7 4 4 6 -4 16 0 23 8 6 7 34 21 62 31 68
22 138 13 200 -25 40 -25 45 -27 35 -10 -21 35 -80 59 -147 59 -38 0 -60 4
-60 11 0 22 173 5 227 -22z m-1557 -79 c27 -27 40 -63 39 -108 0 -33 -1 -35
-12 -17 -22 36 -84 95 -101 95 -9 0 -21 -12 -26 -26 -13 -34 -13 -137 0 -129
6 3 10 26 10 50 0 24 5 47 11 50 7 5 8 -31 4 -121 -7 -140 0 -173 51 -241 25
-33 30 -58 15 -68 -11 -6 -62 98 -86 175 -19 63 -31 229 -21 284 13 70 73 99
116 56z m1010 4 c16 -10 18 -13 5 -8 -11 4 -36 10 -55 14 -34 8 -34 8 -5 8 17
1 41 -6 55 -14z m270 -46 c0 -4 12 -14 28 -23 l27 -15 -30 6 c-75 17 -99 37
-69 59 16 12 21 12 32 -2 6 -9 12 -20 12 -25z m130 28 c0 -7 -6 -19 -14 -25
-11 -9 -12 -6 -8 14 5 26 22 35 22 11z m71 4 c10 -6 19 -15 19 -20 0 -19 -79
-50 -122 -49 -43 2 -43 2 -8 8 24 4 41 15 55 38 22 36 27 38 56 23z m485 -22
c23 -43 29 -155 15 -246 -12 -76 -50 -172 -95 -238 -14 -21 -26 -51 -26 -65 0
-32 -28 -67 -55 -70 -51 -4 -52 -3 -42 56 10 54 11 55 30 38 19 -17 20 -17 14
7 -6 25 -3 28 65 80 44 34 77 115 89 218 13 120 9 182 -13 196 -26 16 -47 -1
-83 -64 -28 -49 -30 -51 -33 -24 -10 77 31 144 87 144 24 0 34 -7 47 -32z
m-796 -3 c-7 -9 -15 -13 -17 -11 -7 7 7 26 19 26 6 0 6 -6 -2 -15z m-1146
-124 c20 -32 36 -66 36 -74 0 -8 -18 -22 -40 -31 -36 -14 -40 -19 -40 -51 0
-66 65 -150 96 -124 11 9 14 8 14 -4 0 -16 -20 -27 -50 -27 -24 0 -64 49 -85
105 -14 36 -17 64 -12 138 8 148 23 161 81 68z m1912 -84 c6 -62 3 -81 -15
-122 -27 -62 -58 -95 -87 -95 -13 0 -28 -8 -33 -17 -10 -16 -10 -16 -11 2 0
15 10 25 34 33 41 15 59 52 54 112 -2 30 -9 46 -23 54 -41 23 -40 31 14 116
l35 55 13 -33 c7 -18 16 -65 19 -105z m-1858 -135 l-3 -37 -12 38 c-13 44 -7
81 9 53 5 -9 8 -33 6 -54z m1747 -9 c-9 -37 -18 -20 -9 19 4 18 9 27 11 20 3
-7 2 -24 -2 -39z m-1768 -146 c-5 -38 15 -29 30 14 l12 34 0 -31 c1 -17 4 -46
7 -63 6 -26 3 -32 -17 -39 -31 -12 -76 4 -90 30 -8 15 -7 31 6 64 15 39 18 42
36 31 15 -9 19 -20 16 -40z m1048 -246 l40 -19 -48 -1 c-26 -1 -63 -7 -82 -15
-27 -12 -37 -12 -51 -2 -20 15 -12 33 20 46 34 14 78 11 121 -9z m-348 -83
c-2 -7 0 -21 5 -30 6 -12 5 -18 -2 -18 -16 0 -77 27 -102 45 -21 14 -19 15 41
15 46 0 61 -3 58 -12z m-503 -473 c-66 -46 -69 -51 -67 -112 1 -33 12 -85 26
-123 53 -141 174 -358 251 -451 l44 -53 -34 -12 c-39 -13 -169 -110 -221 -163
-19 -19 -40 -36 -48 -37 -15 -2 -141 -90 -151 -105 -3 -5 -11 -9 -18 -9 -10 0
-15 29 -21 108 -3 59 -13 154 -21 211 -19 139 -18 274 2 342 9 30 40 97 69
149 29 52 69 127 89 167 25 48 50 79 74 96 37 24 61 17 26 -8z m453 -237 c-2
-18 -4 -6 -4 27 0 33 2 48 4 33 2 -15 2 -42 0 -60z m838 -19 c9 -17 15 -33 13
-35 -3 -2 -12 12 -21 31 -21 43 -13 47 8 4z m-1067 -591 c19 -19 15 -66 -7
-78 -39 -20 -69 15 -57 66 7 26 43 33 64 12z m142 -388 c0 -4 -11 -10 -25 -12
-27 -6 -32 1 -14 19 12 12 39 7 39 -7z m10 -39 c14 -28 13 -71 -3 -71 -26 0
-64 61 -51 81 9 16 43 10 54 -10z"/>
<path d="M2858 3493 c7 -3 16 -2 19 1 4 3 -2 6 -13 5 -11 0 -14 -3 -6 -6z"/>
<path d="M2700 3480 l-65 -7 70 0 c39 0 84 3 100 7 l30 8 -35 -1 c-19 0 -64
-3 -100 -7z"/>
<path d="M2683 3160 c0 -25 2 -35 4 -22 2 12 2 32 0 45 -2 12 -4 2 -4 -23z"/>
<path d="M2691 3099 c-1 -9 7 -23 17 -30 15 -12 16 -12 6 1 -6 8 -14 22 -17
30 -5 13 -6 12 -6 -1z"/>
<path d="M2833 2628 c5 -14 1 -18 -16 -18 -21 -1 -20 -2 5 -16 35 -19 58 -63
58 -112 0 -41 -16 -63 -60 -81 l-25 -10 26 0 c29 -1 66 29 80 66 13 34 -3 87
-42 143 -18 25 -29 37 -26 28z"/>
<path d="M2936 2482 c31 -55 85 -125 63 -82 -19 38 -79 130 -85 130 -3 0 7
-22 22 -48z"/>
<path d="M3380 2468 c-15 -21 -17 -28 -6 -19 16 13 41 51 33 51 -2 0 -14 -15
-27 -32z"/>
<path d="M3232 2287 c-31 -52 -112 -221 -112 -235 0 -3 12 11 26 32 30 44 127
246 122 252 -2 2 -18 -20 -36 -49z"/>
<path d="M3070 2313 c58 -93 61 -97 54 -73 -3 14 -17 40 -31 58 -25 34 -41 44
-23 15z"/>
<path d="M2105 2174 c2 -28 10 -66 19 -85 l15 -34 -6 35 c-4 19 -12 58 -19 85
l-13 50 4 -51z"/>
<path d="M2400 2015 c21 -23 93 -62 143 -79 12 -4 15 -10 10 -18 -4 -7 -9 -21
-10 -30 -2 -15 1 -16 23 -8 23 9 25 8 18 -12 -6 -21 -6 -21 18 -6 l24 16 -4
-54 c-3 -30 -13 -71 -22 -90 l-18 -35 -7 31 c-4 16 -11 30 -17 30 -6 0 -8 -7
-4 -15 3 -8 3 -22 -1 -31 -4 -12 -9 -8 -19 16 -8 18 -14 41 -14 51 0 11 -4 19
-9 19 -10 0 -20 -34 -21 -70 -1 -24 -1 -24 -14 5 l-13 30 -10 -30 -11 -30 -2
35 c-1 32 -2 33 -14 17 -14 -18 -15 -18 -24 -1 -9 15 -13 16 -26 5 -14 -12
-16 -11 -16 7 0 11 -13 30 -29 41 -16 12 -39 37 -51 57 -21 33 -23 34 -41 18
-21 -19 -20 -19 -36 16 -11 23 -12 23 -7 -10 12 -80 46 -171 76 -206 67 -77
163 -99 391 -91 172 5 233 20 299 70 58 44 87 100 93 178 3 35 8 73 11 84 5
16 2 15 -12 -5 -33 -46 -44 -54 -44 -33 -1 12 -6 7 -14 -13 -13 -30 -82 -104
-97 -104 -4 0 -5 -10 -2 -22 5 -23 5 -23 -11 -3 -13 17 -17 18 -26 5 -5 -8
-10 -10 -11 -5 0 6 -7 -3 -14 -20 -12 -25 -14 -26 -15 -9 0 11 -9 29 -20 39
-20 18 -20 17 -20 -11 0 -16 -5 -36 -10 -44 -7 -11 -10 -5 -11 25 0 22 -4 49
-9 60 -8 18 -9 18 -10 -5 0 -14 -8 -36 -16 -50 l-15 -25 5 25 c3 14 -3 43 -14
65 l-18 40 -1 -31 c-1 -29 -25 -74 -34 -64 -2 3 -1 39 2 80 3 44 9 70 14 63
10 -16 41 -17 31 -2 -4 8 3 9 26 4 l32 -7 -16 25 c-16 24 -16 24 49 62 36 21
64 39 62 41 -1 1 -37 -2 -80 -6 -102 -12 -316 3 -359 24 l-32 16 24 -25z"/>
<path d="M2124 3009 c-16 -5 -61 -29 -100 -54 -67 -44 -62 -52 16 -23 13 5 21
6 17 2 -4 -4 19 -19 50 -32 54 -22 66 -23 163 -17 137 10 151 9 160 -5 5 -8 9
-7 13 4 8 21 -94 113 -141 126 -44 12 -135 12 -178 -1z m136 -29 c0 -5 -4 -10
-9 -10 -6 0 -13 5 -16 10 -3 6 1 10 9 10 9 0 16 -4 16 -10z m-93 -62 c23 -26
-2 -24 -47 3 l-34 21 24 20 24 19 9 -23 c4 -12 15 -31 24 -40z m127 24 c-6 -9
-20 -19 -30 -21 -18 -3 -18 -2 -1 16 9 11 17 26 17 33 0 11 3 11 12 2 9 -9 10
-17 2 -30z m80 -6 l30 -20 -70 -12 c-38 -7 -87 -12 -109 -12 -37 1 -37 2 10 7
42 5 53 11 70 37 21 33 22 33 69 0z"/>
<path d="M2420 2946 c0 -2 8 -10 18 -17 15 -13 16 -12 3 4 -13 16 -21 21 -21
13z"/>
<path d="M2125 2840 c-3 -5 1 -10 10 -10 9 0 13 5 10 10 -3 6 -8 10 -10 10 -2
0 -7 -4 -10 -10z"/>
<path d="M2220 2830 l-65 -7 70 -1 c39 0 79 3 90 8 18 8 18 8 -5 8 -14 -1 -54
-4 -90 -8z"/>
<path d="M2920 2859 c61 -41 153 -67 135 -38 -4 6 -13 8 -20 5 -7 -2 -36 6
-65 20 -54 25 -75 31 -50 13z"/>
<path d="M3088 2803 c7 -3 16 -2 19 1 4 3 -2 6 -13 5 -11 0 -14 -3 -6 -6z"/>
<path d="M2095 913 c-49 -33 -285 -224 -285 -231 0 -2 19 11 43 30 49 40 218
173 262 205 42 31 28 28 -20 -4z"/>
<path d="M1764 648 l-29 -33 33 29 c30 28 37 36 29 36 -2 0 -16 -15 -33 -32z"/>
<path d="M2130 751 c0 -6 4 -13 10 -16 6 -3 7 1 4 9 -7 18 -14 21 -14 7z"/>
<path d="M3353 1215 c0 -38 2 -53 4 -32 2 20 2 52 0 70 -2 17 -4 1 -4 -38z"/>
<path d="M3291 1184 c0 -11 3 -14 6 -6 3 7 2 16 -1 19 -3 4 -6 -2 -5 -13z"/>
<path d="M3281 1144 c0 -11 3 -14 6 -6 3 7 2 16 -1 19 -3 4 -6 -2 -5 -13z"/>
<path d="M1398 1094 c-38 -19 -68 -37 -68 -39 0 -3 32 11 70 30 39 19 70 37
70 40 0 7 3 8 -72 -31z"/>
<path d="M3342 1105 c0 -16 2 -22 5 -12 2 9 2 23 0 30 -3 6 -5 -1 -5 -18z"/>
<path d="M3271 1104 c0 -11 3 -14 6 -6 3 7 2 16 -1 19 -3 4 -6 -2 -5 -13z"/>
<path d="M3261 1064 c0 -11 3 -14 6 -6 3 7 2 16 -1 19 -3 4 -6 -2 -5 -13z"/>
<path d="M3331 1044 c0 -11 3 -14 6 -6 3 7 2 16 -1 19 -3 4 -6 -2 -5 -13z"/>
<path d="M1140 960 c-74 -38 -132 -69 -127 -69 10 -1 267 128 267 134 0 7 9
11 -140 -65z"/>
<path d="M3800 1006 c0 -3 9 -10 20 -16 11 -6 20 -8 20 -6 0 3 -9 10 -20 16
-11 6 -20 8 -20 6z"/>
<path d="M3014 929 c-14 -28 -24 -53 -22 -55 2 -2 16 21 31 51 15 30 25 55 22
55 -3 0 -16 -23 -31 -51z"/>
<path d="M3890 946 c0 -2 8 -10 18 -17 15 -13 16 -12 3 4 -13 16 -21 21 -21
13z"/>
<path d="M920 855 c-25 -13 -40 -24 -35 -24 6 0 30 11 55 24 25 13 41 24 35
24 -5 0 -30 -11 -55 -24z"/>
<path d="M1607 868 c6 -7 13 -20 16 -28 4 -10 6 -8 6 6 1 12 -6 25 -15 28 -13
5 -14 3 -7 -6z"/>
<path d="M4045 835 c11 -9 29 -21 40 -26 l20 -10 -20 16 c-11 9 -29 21 -40 26
l-20 10 20 -16z"/>
<path d="M800 800 c-8 -5 -10 -10 -5 -10 6 0 17 5 25 10 8 5 11 10 5 10 -5 0
-17 -5 -25 -10z"/>
<path d="M4130 786 c0 -3 14 -12 30 -21 17 -9 30 -13 30 -11 0 3 -13 12 -30
21 -16 9 -30 13 -30 11z"/>
<path d="M730 770 c-8 -5 -10 -10 -5 -10 6 0 17 5 25 10 8 5 11 10 5 10 -5 0
-17 -5 -25 -10z"/>
<path d="M3940 755 c-22 -26 94 -280 202 -442 37 -57 53 -95 73 -172 14 -55
25 -109 25 -120 0 -18 6 -21 50 -21 28 0 50 4 50 10 0 12 -100 277 -128 340
-11 25 -27 54 -36 65 -15 19 -15 18 -16 -25 -1 -43 -2 -41 -39 60 -61 171
-136 320 -160 320 -5 0 -14 -7 -21 -15z"/>
<path d="M640 730 c-19 -11 -30 -19 -25 -19 6 0 26 8 45 19 19 11 31 19 25 19
-5 0 -26 -8 -45 -19z"/>
<path d="M3751 741 c-8 -5 -10 -14 -5 -22 4 -7 9 -22 10 -34 10 -89 71 -244
129 -330 19 -28 51 -86 70 -130 19 -44 35 -76 35 -71 0 4 -13 72 -29 150 -16
77 -33 166 -37 196 -6 46 -9 50 -13 27 -5 -25 -13 -11 -56 96 -34 85 -54 122
-61 116 -6 -5 -14 -5 -20 1 -5 5 -15 5 -23 1z"/>
<path d="M4200 746 c0 -3 9 -10 20 -16 11 -6 20 -8 20 -6 0 3 -9 10 -20 16
-11 6 -20 8 -20 6z"/>
<path d="M2742 685 c-21 -34 -52 -102 -52 -111 0 -2 5 -4 11 -4 12 0 72 127
66 143 -1 5 -13 -7 -25 -28z"/>
<path d="M3881 684 c0 -11 3 -14 6 -6 3 7 2 16 -1 19 -3 4 -6 -2 -5 -13z"/>
<path d="M4290 695 c0 -2 23 -16 50 -30 28 -14 50 -23 50 -20 0 2 -22 16 -50
30 -27 14 -50 23 -50 20z"/>
<path d="M3892 640 c0 -14 2 -19 5 -12 2 6 2 18 0 25 -3 6 -5 1 -5 -13z"/>
<path d="M4440 615 c0 -2 18 -14 40 -25 22 -11 40 -18 40 -15 0 2 -18 14 -40
25 -22 11 -40 18 -40 15z"/>
<path d="M3902 580 c0 -14 2 -19 5 -12 2 6 2 18 0 25 -3 6 -5 1 -5 -13z"/>
<path d="M1061 303 c-29 -148 -55 -276 -58 -285 -3 -13 2 -18 16 -18 12 0 21
2 21 4 0 2 20 82 45 179 24 96 50 214 57 261 11 82 11 87 -8 106 -20 20 -20
19 -73 -247z"/>
<path d="M2420 566 c0 -3 24 -12 53 -21 28 -10 76 -30 104 -46 29 -16 65 -29
80 -28 36 0 246 78 213 78 -14 0 -63 -13 -110 -29 -46 -17 -92 -30 -102 -30
-10 0 -42 12 -71 27 -62 31 -167 62 -167 49z"/>
<path d="M4580 537 c0 -3 12 -12 26 -22 15 -9 23 -12 20 -6 -7 11 -46 35 -46
28z"/>
<path d="M1176 485 c-3 -9 -6 -24 -5 -33 0 -9 5 -4 10 12 9 32 6 48 -5 21z"/>
<path d="M4650 486 c0 -2 8 -10 18 -17 15 -13 16 -12 3 4 -13 16 -21 21 -21
13z"/>
<path d="M1162 410 c0 -14 2 -19 5 -12 2 6 2 18 0 25 -3 6 -5 1 -5 -13z"/>
<path d="M1135 285 c-10 -53 -16 -98 -13 -100 2 -3 12 39 21 92 10 52 16 98
13 100 -2 2 -12 -39 -21 -92z"/>
<path d="M4502 168 c-45 -158 -48 -172 -31 -166 14 5 71 228 66 261 -1 10 -17
-33 -35 -95z"/>
<path d="M651 195 c-2 -20 32 -180 40 -189 6 -6 9 -6 9 0 -1 17 -48 199 -49
189z"/>
<path d="M1105 115 c-3 -31 -5 -59 -2 -61 3 -3 8 20 12 51 3 31 5 59 2 61 -3
3 -8 -20 -12 -51z"/>
<path d="M4696 70 c-10 -22 -24 -47 -32 -55 -9 -8 -11 -15 -5 -15 19 0 49 41
54 73 6 44 4 43 -17 -3z"/>
<path d="M466 49 c14 -28 28 -49 31 -46 5 5 -45 97 -53 97 -2 0 7 -23 22 -51z"/>
<path d="M1091 14 c0 -11 3 -14 6 -6 3 7 2 16 -1 19 -3 4 -6 -2 -5 -13z"/>
</g>
</svg>